<svg xmlns="http://www.w3.org/2000/svg" xmlns:xlink="http://www.w3.org/1999/xlink" width="760" height="691" viewBox="0 0 760 691">
  <defs>
    <clipPath id="clip-textarea_bg_icon_1">
      <rect width="760" height="691"/>
    </clipPath>
  </defs>
  <g id="textarea_bg_icon_1" data-name="textarea_bg_icon – 1" clip-path="url(#clip-textarea_bg_icon_1)">
    <g id="back" transform="translate(2484.556 873.726)">
      <g id="ill" transform="translate(-2484.556 -873.726)">
        <g id="Group_89" data-name="Group 89" transform="translate(0 72.397)">
          <g id="Group_24" data-name="Group 24" transform="translate(0 9.325)">
            <g id="Group_23" data-name="Group 23">
              <path id="Path_21" data-name="Path 21" d="M-2003.612-672.367c-51.928,24.1-86.615,56.568-146.855,54.172-50.744-2.019-98.715-17.662-150.2-13.576-90.051,7.147-189.915,67.327-183.606,170.149,2.792,45.518,34.306,73.55,54.916,110.932,28.537,51.76,7.219,93.272,15.989,147.672C-2398.055-108.04-2295.072-53.874-2208-93.264c90.687-41.024,119.274-121.157,230.972-116.9,45.115,1.718,102.075,12.1,136.928-26.093,33.592-36.808,9.341-84.07,19.929-126.6,13.151-52.822,72.3-68.467,90.2-119.01,14.393-40.638-1.9-80.553-25.515-114.114-56.488-80.283-155-119.61-248.127-76.386Z" transform="translate(2484.556 690.173)" fill="#fff"/>
            </g>
          </g>
          <g id="Group_40" data-name="Group 40" transform="translate(66.306 237.334)">
            <g id="Group_36" data-name="Group 36" transform="translate(0 0)">
              <g id="Group_25" data-name="Group 25" transform="translate(0 74.725)">
                <path id="Path_22" data-name="Path 22" d="M-2296.84,22.681c-2.066-7.847-4.286-15.845-8.607-22.356s-11.212-11.349-18.274-10.421S-2337.066-.951-2335.338,7c3.625-4.325,8.617-8.372,13.666-6.859,5.57,1.67,8.109,9.2,8.492,15.83.82,14.191-4.259,28.359-2.473,42.431,1.6,12.634,8.575,23.536,16.516,32.429,3.9,4.362,8.07,8.367,12.2,12.425,2.677,2.63,8.1,10.556,11.5,10.631-1.891-15.177-6.69-30.632-10.138-45.457C-2289.135,53.12-2292.845,37.851-2296.84,22.681Z" transform="translate(2335.627 10.21)" fill="#31c573"/>
              </g>
              <g id="Group_26" data-name="Group 26" transform="translate(49.316 33.975)">
                <path id="Path_23" data-name="Path 23" d="M-2197.751-6.277c.108,24.067-8.661,47.328-8.039,71.433-22.867-49.336-26.138-117.341-4.525-166.893,1.406,34.68,12.443,68.518,12.6,103.113-.011-2.385-.079-17.476-.034-7.653C-2197.643,17.722-2197.824-22.551-2197.751-6.277Z" transform="translate(2224.86 101.737)" fill="#31c573"/>
              </g>
              <g id="Group_27" data-name="Group 27" transform="translate(73.437)">
                <path id="Path_24" data-name="Path 24" d="M-2170.584-120.569a101.967,101.967,0,0,0,11.708,52.008c-.942-1.777,2.526-10.677,2.947-12.964q1.294-7.042,1.961-14.179a165.6,165.6,0,0,0,.232-28.1c-1.484-19.367-7.844-35.995-13.467-54.247C-2161.984-159.894-2169.764-138.953-2170.584-120.569Z" transform="translate(2170.683 178.048)" fill="#31c573"/>
              </g>
              <g id="Group_28" data-name="Group 28" transform="translate(75.73 33.582)">
                <path id="Path_25" data-name="Path 25" d="M-2152.982-20.033c-8.325,27.459-16.87,56.033-10.1,83.944a167.606,167.606,0,0,0,28.135-77.645c2.714-29.065-1.114-60.357-8.573-88.886C-2137.31-74.572-2144.783-47.073-2152.982-20.033Z" transform="translate(2165.532 102.62)" fill="#31c573"/>
              </g>
              <g id="Group_29" data-name="Group 29" transform="translate(92.683 127.982)">
                <path id="Path_26" data-name="Path 26" d="M-2106.189,121.483c3.154-4.026,6.736-7.889,11.31-10.174s10.333-2.743,14.688-.065c3.535,2.173,5.7,6.1,6.64,10.145s.8,8.246.65,12.394c-1.152-3.693-2.544-7.431-5.141-10.3s-6.664-4.7-10.392-3.668c-4.961,1.376-7.431,7.118-7.545,12.265s1.411,10.227,1.288,15.374c-.2,8.512-4.966,16.4-11.192,22.208-5.415,5.05-13.487,11.137-20.649,13.178-2.968-8.923,1.906-23.9,4.818-32.509A97.572,97.572,0,0,1-2106.189,121.483Z" transform="translate(2127.455 -109.41)" fill="#31c573"/>
              </g>
              <g id="Group_35" data-name="Group 35" transform="translate(15.621 22.341)">
                <g id="Group_30" data-name="Group 30" transform="translate(0 59.395)">
                  <path id="Path_27" data-name="Path 27" d="M-2253.255,126.126a.46.46,0,0,1-.361-.174,148.944,148.944,0,0,1-31.865-79.438c-.157-1.8-.283-3.636-.405-5.412-.385-5.6-.784-11.4-2.2-16.893-1.237-4.782-4.469-13.454-12.214-17.805a.463.463,0,0,1-.177-.63.463.463,0,0,1,.631-.177c5.962,3.349,10.457,9.877,12.656,18.38,1.442,5.578,1.844,11.416,2.232,17.062.122,1.771.248,3.6.4,5.395a148.019,148.019,0,0,0,31.664,78.939.463.463,0,0,1-.072.651A.459.459,0,0,1-2253.255,126.126Z" transform="translate(2300.54 -5.538)" fill="#c5e1f9"/>
                </g>
                <g id="Group_31" data-name="Group 31" transform="translate(40.003 29.332)">
                  <path id="Path_28" data-name="Path 28" d="M-2194.094,94.136a.463.463,0,0,1-.454-.375l-9.376-48.4c-1.4-7.237-2.991-15.439-1.706-23.281a67.9,67.9,0,0,1,1.752-7.267c1.069-3.811,2.176-7.752,2.061-11.72-.132-4.626-1.91-9.078-3.628-13.384-.562-1.406-1.142-2.861-1.658-4.3a62.4,62.4,0,0,1,2.215-47.127.463.463,0,0,1,.615-.223.463.463,0,0,1,.223.616,61.466,61.466,0,0,0-2.181,46.422c.511,1.427,1.088,2.874,1.646,4.273,1.749,4.381,3.556,8.91,3.694,13.7.118,4.109-1.007,8.119-2.1,12a67.006,67.006,0,0,0-1.73,7.167c-1.259,7.679.246,15.445,1.7,22.956l9.376,48.4a.463.463,0,0,1-.367.543A.459.459,0,0,1-2194.094,94.136Z" transform="translate(2210.691 61.987)" fill="#c5e1f9"/>
                </g>
                <g id="Group_32" data-name="Group 32" transform="translate(62.721)">
                  <path id="Path_29" data-name="Path 29" d="M-2154.733-58.041a.464.464,0,0,1-.452-.364,193.647,193.647,0,0,1-2.493-69.067.462.462,0,0,1,.524-.392.462.462,0,0,1,.392.524,192.738,192.738,0,0,0,2.482,68.738.462.462,0,0,1-.354.551A.446.446,0,0,1-2154.733-58.041Z" transform="translate(2159.664 127.869)" fill="#c5e1f9"/>
                </g>
                <g id="Group_33" data-name="Group 33" transform="translate(61.728 48.747)">
                  <path id="Path_30" data-name="Path 30" d="M-2161.431,117.334l-.046,0a.463.463,0,0,1-.415-.507l2.663-26.788c.759-7.636,1.619-16.291,6.161-23.265.886-1.361,1.933-2.717,2.946-4.028,2.991-3.872,6.084-7.875,5.344-12.449a16.721,16.721,0,0,0-1.743-4.637,18.964,18.964,0,0,1-1.771-4.576c-.912-4.575,1.467-8.828,3.767-12.94.279-.5.555-.993.824-1.484a59.53,59.53,0,0,0,4.979-44.446.462.462,0,0,1,.318-.572.463.463,0,0,1,.572.319,60.458,60.458,0,0,1-5.057,45.143c-.27.494-.548.992-.829,1.493-2.218,3.966-4.512,8.067-3.667,12.307a18.277,18.277,0,0,0,1.694,4.349,17.685,17.685,0,0,1,1.826,4.9c.8,4.97-2.414,9.135-5.526,13.163-1,1.3-2.038,2.637-2.9,3.967-4.418,6.785-5.267,15.32-6.016,22.851l-2.663,26.788A.463.463,0,0,1-2161.431,117.334Z" transform="translate(2161.894 18.378)" fill="#c5e1f9"/>
                </g>
                <g id="Group_34" data-name="Group 34" transform="translate(75.859 110.272)">
                  <path id="Path_31" data-name="Path 31" d="M-2129.637,195.778a.463.463,0,0,1-.46-.422c-.447-4.929,1.676-10.277,6.308-15.9,1.183-1.434,2.456-2.834,3.688-4.187a53.415,53.415,0,0,0,7.116-9.048c3.2-5.574,4.237-12.135,5.243-18.481.924-5.836,1.88-11.87,4.5-17.238,2.385-4.889,5.915-8.412,9.939-9.92,4.877-1.828,10.529-.336,13.146,3.471a.463.463,0,0,1-.119.644.463.463,0,0,1-.644-.119c-2.384-3.467-7.568-4.811-12.058-3.129-3.8,1.425-7.152,4.784-9.431,9.459-2.558,5.242-3.5,11.208-4.416,16.976-1.018,6.429-2.071,13.076-5.354,18.8a54.152,54.152,0,0,1-7.235,9.21c-1.224,1.345-2.49,2.735-3.658,4.153-4.471,5.423-6.524,10.545-6.1,15.223a.462.462,0,0,1-.419.5Z" transform="translate(2130.155 -119.811)" fill="#c5e1f9"/>
                </g>
              </g>
            </g>
            <g id="Group_39" data-name="Group 39" transform="translate(32.953 187.463)">
              <g id="Group_37" data-name="Group 37" transform="translate(10.289 13.511)">
                <path id="Path_32" data-name="Path 32" d="M-2173.949,341.364l-55.819-.105-8.735-67.9,73.545.139Z" transform="translate(2238.503 -273.354)" fill="#4b4e6d"/>
              </g>
              <g id="Group_38" data-name="Group 38">
                <path id="Path_33" data-name="Path 33" d="M-2171.814,243.015l-85.428-.007-4.372,21.118,94.168.008Z" transform="translate(2261.613 -243.008)" fill="#4b4e6d"/>
              </g>
            </g>
          </g>
          <g id="Group_88" data-name="Group 88" transform="translate(90.476 0)">
            <g id="Group_43" data-name="Group 43" transform="translate(181.606 92.989)">
              <g id="Group_41" data-name="Group 41">
                <circle id="Ellipse_5" data-name="Ellipse 5" cx="74.272" cy="74.272" r="74.272" fill="#4b4e6d"/>
              </g>
              <g id="Group_42" data-name="Group 42" transform="translate(54.853 23.032)">
                <circle id="Ellipse_6" data-name="Ellipse 6" cx="76.333" cy="76.333" r="76.333" transform="translate(0 107.951) rotate(-45)" fill="#4b4e6d"/>
              </g>
            </g>
            <g id="Group_69" data-name="Group 69" transform="translate(0 202.214)">
              <g id="Group_64" data-name="Group 64" transform="translate(68.941 0)">
                <g id="Group_46" data-name="Group 46" transform="translate(295.809 184.441)">
                  <g id="Group_45" data-name="Group 45" transform="translate(0 0)">
                    <g id="Group_44" data-name="Group 44">
                      <path id="Path_34" data-name="Path 34" d="M-1421.981,175.848l23.824,101.99h-63.928V157.34Z" transform="translate(1462.085 -157.34)" fill="#b33e57"/>
                    </g>
                  </g>
                </g>
                <g id="Group_49" data-name="Group 49">
                  <g id="Group_48" data-name="Group 48">
                    <g id="Group_47" data-name="Group 47">
                      <path id="Path_35" data-name="Path 35" d="M-1821.723,48.01V-162.756a92.746,92.746,0,0,0-78.832-91.7l-16.326-2.477-78.231,32.024a114.448,114.448,0,0,0-63.4,62.687c-17.555,42.6-44.306,107.62-65.2,158.913a37.263,37.263,0,0,0,34.519,51.314Z" transform="translate(2126.494 256.929)" fill="#306fd7"/>
                    </g>
                  </g>
                </g>
                <g id="Group_52" data-name="Group 52" transform="translate(157.576)">
                  <g id="Group_51" data-name="Group 51">
                    <g id="Group_50" data-name="Group 50">
                      <path id="Path_36" data-name="Path 36" d="M-1772.565,48.01V-162.756a92.746,92.746,0,0,1,78.832-91.7l16.326-2.477,78.231,32.024a114.45,114.45,0,0,1,63.4,62.687C-1517.967-119-1490.685-52.679-1469.666-1.05a35.63,35.63,0,0,1-33.019,49.06Z" transform="translate(1772.565 256.929)" fill="#306fd7"/>
                    </g>
                  </g>
                </g>
                <g id="Group_59" data-name="Group 59" transform="translate(96.974 98.595)">
                  <g id="Group_55" data-name="Group 55" transform="translate(2.362 157.016)">
                    <g id="Group_54" data-name="Group 54" transform="translate(0 0)">
                      <g id="Group_53" data-name="Group 53">
                        <path id="Path_37" data-name="Path 37" d="M-1691.512,366.521v-1.491a6.525,6.525,0,0,0-4.234-6.109l-71.183-26.694a28.1,28.1,0,0,0-18.991-.267l-25.047,8.6a16.458,16.458,0,0,1-9.87.256l-82.541-23.623v49.328Z" transform="translate(1903.378 -317.193)" fill="#306fd7"/>
                      </g>
                    </g>
                  </g>
                  <g id="Group_58" data-name="Group 58" transform="translate(0 0)">
                    <g id="Group_57" data-name="Group 57">
                      <g id="Group_56" data-name="Group 56">
                        <path id="Path_38" data-name="Path 38" d="M-1906.321,173.23a2.362,2.362,0,0,1-2.363-2.363V111.262l.1-.334,39.519-130.922-9.448-11.629a2.363,2.363,0,0,1,.345-3.324,2.361,2.361,0,0,1,3.323.345l11.028,13.574-40.143,132.987v58.908A2.362,2.362,0,0,1-1906.321,173.23Z" transform="translate(1908.684 35.477)" fill="#fff"/>
                      </g>
                    </g>
                  </g>
                </g>
                <g id="Group_63" data-name="Group 63" transform="translate(339.576 98.596)">
                  <g id="Group_62" data-name="Group 62" transform="translate(0 0)">
                    <g id="Group_61" data-name="Group 61">
                      <g id="Group_60" data-name="Group 60">
                        <path id="Path_39" data-name="Path 39" d="M-1321.272,173.231a2.361,2.361,0,0,1-2.363-2.363V111.96l-40.144-132.987,11.03-13.574a2.359,2.359,0,0,1,3.322-.344,2.36,2.36,0,0,1,.344,3.322l-9.447,11.629,39.62,131.257v59.605A2.361,2.361,0,0,1-1321.272,173.231Z" transform="translate(1363.779 35.475)" fill="#fff"/>
                      </g>
                    </g>
                  </g>
                </g>
              </g>
              <g id="Group_68" data-name="Group 68" transform="translate(0 301.395)">
                <g id="Group_67" data-name="Group 67" transform="translate(0 0)">
                  <g id="Group_66" data-name="Group 66">
                    <g id="Group_65" data-name="Group 65">
                      <path id="Path_40" data-name="Path 40" d="M-1703.949,427.116H-2277.8a3.545,3.545,0,0,1-3.544-3.544,3.544,3.544,0,0,1,3.544-3.544h573.847a3.545,3.545,0,0,1,3.544,3.544A3.545,3.545,0,0,1-1703.949,427.116Z" transform="translate(2281.34 -420.028)" fill="#4b4e6d"/>
                    </g>
                  </g>
                </g>
              </g>
            </g>
            <g id="laptop" transform="translate(82.904 360.421)">
              <g id="Group_79" data-name="Group 79">
                <g id="Group_72" data-name="Group 72" transform="translate(8.029)">
                  <g id="Group_71" data-name="Group 71">
                    <g id="Group_70" data-name="Group 70">
                      <path id="Path_41" data-name="Path 41" d="M-1883.28,98.417H-2070.4a6.69,6.69,0,0,0-6.287,8.978l48.9,134.349h203.235l-49.924-137.165A9.366,9.366,0,0,0-1883.28,98.417Z" transform="translate(2077.098 -98.417)" fill="#fff"/>
                    </g>
                  </g>
                </g>
                <g id="Group_75" data-name="Group 75">
                  <g id="Group_74" data-name="Group 74">
                    <g id="Group_73" data-name="Group 73">
                      <path id="Path_42" data-name="Path 42" d="M-1901.313,98.417h-187.122a6.69,6.69,0,0,0-6.287,8.978l45.851,125.973a12.73,12.73,0,0,0,11.963,8.376h194.321l-49.924-137.165A9.366,9.366,0,0,0-1901.313,98.417Z" transform="translate(2095.131 -98.417)" fill="#c5e1f9"/>
                    </g>
                  </g>
                </g>
                <g id="Group_78" data-name="Group 78" transform="translate(97.201 50.973)">
                  <g id="Group_77" data-name="Group 77" transform="translate(0 0)">
                    <g id="Group_76" data-name="Group 76">
                      <ellipse id="Ellipse_7" data-name="Ellipse 7" cx="12.202" cy="15.939" rx="12.202" ry="15.939" transform="matrix(0.658, -0.753, 0.753, 0.658, 0, 18.366)" fill="#fff"/>
                    </g>
                  </g>
                </g>
              </g>
            </g>
            <g id="Group_87" data-name="Group 87" transform="translate(187.541)">
              <g id="Group_81" data-name="Group 81">
                <g id="Group_80" data-name="Group 80">
                  <circle id="Ellipse_8" data-name="Ellipse 8" cx="69.177" cy="69.177" r="69.177" transform="translate(0 97.831) rotate(-45)" fill="#4b4e6d"/>
                </g>
              </g>
              <g id="Group_86" data-name="Group 86" transform="translate(44.194 39.735)">
                <g id="Group_84" data-name="Group 84" transform="translate(36.354 82.785)">
                  <g id="Group_82" data-name="Group 82">
                    <path id="Path_43" data-name="Path 43" d="M-1648.649-319.7a30.547,30.547,0,0,1-30.542-30.567v-85.657h43.664l16.782,79.342A30.578,30.578,0,0,1-1648.649-319.7Z" transform="translate(1679.192 435.928)" fill="#fff"/>
                  </g>
                  <g id="Group_83" data-name="Group 83" transform="translate(0 22.164)">
                    <path id="Path_44" data-name="Path 44" d="M-1653.687-372.583c-12.851,3.735-20.763,9.952-25.505,15.308v-28.872C-1664.818-384.082-1632.9-378.6-1653.687-372.583Z" transform="translate(1679.192 386.146)" fill="#fff"/>
                  </g>
                </g>
                <g id="Group_85" data-name="Group 85" transform="translate(23.199 16.62)">
                  <rect id="Rectangle_6" data-name="Rectangle 6" width="71.252" height="109.745" rx="35.626" fill="#fff"/>
                </g>
                <ellipse id="Ellipse_9" data-name="Ellipse 9" cx="40.047" cy="19.278" rx="40.047" ry="19.278" transform="matrix(0.95, -0.312, 0.312, 0.95, 0, 25.026)" fill="#4b4e6d"/>
                <ellipse id="Ellipse_10" data-name="Ellipse 10" cx="12.133" cy="25.205" rx="12.133" ry="25.205" transform="translate(62.181 24.395) rotate(-46.75)" fill="#4b4e6d"/>
              </g>
            </g>
          </g>
        </g>
        <g id="envelope" transform="translate(78.621)">
          <g id="Group_90" data-name="Group 90">
            <path id="Path_45" data-name="Path 45" d="M-2175.964-870.217l26.414,73.752a5.293,5.293,0,0,1-3.2,6.766l-121.727,43.6a5.285,5.285,0,0,1-6.766-3.2l-26.414-73.752a5.272,5.272,0,0,1,2.431-6.415,4.856,4.856,0,0,1,.767-.351l121.726-43.6a5.483,5.483,0,0,1,.981-.249A5.294,5.294,0,0,1-2175.964-870.217Z" transform="translate(2307.966 873.726)" fill="#fff"/>
          </g>
          <g id="Group_91" data-name="Group 91" transform="translate(2.744 0.062)">
            <path id="Path_46" data-name="Path 46" d="M-2178.33-873.587l-42.6,68.048a4.04,4.04,0,0,1-4.722,1.691l-76.148-25.543a4.868,4.868,0,0,1,.767-.351l121.726-43.6A5.478,5.478,0,0,1-2178.33-873.587Z" transform="translate(2301.804 873.587)" fill="#ccd6e2"/>
          </g>
          <g id="Group_92" data-name="Group 92" transform="translate(91.515 60.252)">
            <path id="Path_47" data-name="Path 47" d="M-2038.749-718.289a1.125,1.125,0,0,1-.69.021l-62.163-17.921a1.125,1.125,0,0,1-.77-1.394,1.125,1.125,0,0,1,1.393-.77l62.163,17.921a1.126,1.126,0,0,1,.77,1.394A1.125,1.125,0,0,1-2038.749-718.289Z" transform="translate(2102.417 738.397)" fill="#ccd6e2"/>
          </g>
          <g id="Group_93" data-name="Group 93" transform="translate(29.588 69.018)">
            <path id="Path_48" data-name="Path 48" d="M-2240-663.223a1.126,1.126,0,0,1-1.024-.135,1.126,1.126,0,0,1-.281-1.567l37.075-53.3a1.125,1.125,0,0,1,1.567-.281,1.125,1.125,0,0,1,.282,1.567l-37.075,53.3A1.121,1.121,0,0,1-2240-663.223Z" transform="translate(2241.51 718.706)" fill="#ccd6e2"/>
          </g>
        </g>
        <g id="envelope-2" data-name="envelope" transform="translate(558.469 209.075)">
          <g id="Group_94" data-name="Group 94">
            <path id="Path_49" data-name="Path 49" d="M-1211.176-401.63l-18.795,52.479a3.766,3.766,0,0,0,2.275,4.814l86.614,31.02a3.76,3.76,0,0,0,4.814-2.275l18.8-52.478a3.751,3.751,0,0,0-1.73-4.564,3.427,3.427,0,0,0-.545-.25l-86.615-31.021a3.932,3.932,0,0,0-.7-.177A3.767,3.767,0,0,0-1211.176-401.63Z" transform="translate(1230.192 404.126)" fill="#ebf1f8"/>
          </g>
          <g id="Group_95" data-name="Group 95" transform="translate(23.132 0.044)">
            <path id="Path_50" data-name="Path 50" d="M-1178.235-404.027l30.314,48.419a2.875,2.875,0,0,0,3.36,1.2l54.183-18.175a3.427,3.427,0,0,0-.545-.25l-86.614-31.021A3.929,3.929,0,0,0-1178.235-404.027Z" transform="translate(1178.235 404.027)" fill="#ccd6e2"/>
          </g>
          <g id="Group_96" data-name="Group 96" transform="translate(1.99 42.872)">
            <path id="Path_51" data-name="Path 51" d="M-1225.19-293.525a.8.8,0,0,0,.491.015l44.232-12.752a.8.8,0,0,0,.548-.992.8.8,0,0,0-.991-.548l-44.232,12.752a.8.8,0,0,0-.548.992A.8.8,0,0,0-1225.19-293.525Z" transform="translate(1225.722 307.833)" fill="#ccd6e2"/>
          </g>
          <g id="Group_97" data-name="Group 97" transform="translate(63.907 49.11)">
            <path id="Path_52" data-name="Path 52" d="M-1059.741-254.342a.8.8,0,0,0,.728-.1.8.8,0,0,0,.2-1.115l-26.381-37.924a.8.8,0,0,0-1.115-.2.8.8,0,0,0-.2,1.115l26.381,37.924A.8.8,0,0,0-1059.741-254.342Z" transform="translate(1086.652 293.821)" fill="#ccd6e2"/>
          </g>
        </g>
        <g id="Group_101" data-name="Group 101" transform="translate(454.001 21.54)">
          <g id="Group_98" data-name="Group 98" transform="translate(0 0)">
            <circle id="Ellipse_11" data-name="Ellipse 11" cx="48.263" cy="48.263" r="48.263" transform="translate(0 68.255) rotate(-45)" fill="#4b4e6d"/>
          </g>
          <g id="bell" transform="translate(48.628 47.37)">
            <g id="Group_99" data-name="Group 99" transform="translate(13.425 35.213)">
              <path id="Path_53" data-name="Path 53" d="M-1319.607-633.312q.19.012.38.011a5.049,5.049,0,0,0,4.491-2.959l1.683-3.6h-12.407l1.686,3.606A5.019,5.019,0,0,0-1319.607-633.312Z" transform="translate(1325.459 639.857)" fill="#fff"/>
            </g>
            <g id="Group_100" data-name="Group 100">
              <path id="Path_54" data-name="Path 54" d="M-1317.746-693.14c-.071-.079-6.484-6.5-6.484-6.5l-3.533-13.183a8.236,8.236,0,0,0-4.537-5.372,8.153,8.153,0,0,0-3.653-.755.3.3,0,0,0-.06,0,8.156,8.156,0,0,0-3.654.755,8.237,8.237,0,0,0-4.537,5.372l-3.533,13.183s-6.413,6.416-6.484,6.5a5.508,5.508,0,0,0-1.278,4.763h39.033A5.51,5.51,0,0,0-1317.746-693.14Z" transform="translate(1355.612 718.947)" fill="#fff"/>
            </g>
          </g>
        </g>
        <g id="booble" transform="translate(441.776 362.299)">
          <g id="Group_102" data-name="Group 102" transform="translate(0 0)">
            <path id="Path_55" data-name="Path 55" d="M-1383.055,18.661h-86.383l-22.854,20.777v-60.1a39.318,39.318,0,0,1,39.318-39.318h69.919a39.318,39.318,0,0,1,39.318,39.318h0A39.318,39.318,0,0,1-1383.055,18.661Z" transform="translate(1492.292 59.975)" fill="#31c573"/>
          </g>
          <g id="Group_109" data-name="Group 109" transform="translate(33.018 24.774)">
            <g id="Group_104" data-name="Group 104" transform="translate(0 0)">
              <g id="Group_103" data-name="Group 103">
                <path id="Path_56" data-name="Path 56" d="M-1346.321-2.252h-70.771a1.039,1.039,0,0,1-1.039-1.039,1.039,1.039,0,0,1,1.039-1.039h70.771a1.039,1.039,0,0,1,1.039,1.039A1.039,1.039,0,0,1-1346.321-2.252Z" transform="translate(1418.13 4.33)" fill="#fff"/>
              </g>
            </g>
            <g id="Group_106" data-name="Group 106" transform="translate(0 14.024)">
              <g id="Group_105" data-name="Group 105">
                <path id="Path_57" data-name="Path 57" d="M-1335.932,29.248h-81.159a1.039,1.039,0,0,1-1.039-1.039,1.039,1.039,0,0,1,1.039-1.039h81.159a1.039,1.039,0,0,1,1.039,1.039A1.039,1.039,0,0,1-1335.932,29.248Z" transform="translate(1418.13 -27.17)" fill="#fff"/>
              </g>
            </g>
            <g id="Group_108" data-name="Group 108" transform="translate(0 28.049)">
              <g id="Group_107" data-name="Group 107">
                <path id="Path_58" data-name="Path 58" d="M-1361.384,60.748h-55.707a1.039,1.039,0,0,1-1.039-1.039,1.039,1.039,0,0,1,1.039-1.039h55.707a1.038,1.038,0,0,1,1.039,1.039A1.038,1.038,0,0,1-1361.384,60.748Z" transform="translate(1418.13 -58.67)" fill="#fff"/>
              </g>
            </g>
          </g>
        </g>
        <g id="booble-2" data-name="booble" transform="translate(61.796 207.247)">
          <g id="Group_110" data-name="Group 110">
            <path id="Path_59" data-name="Path 59" d="M-2299.045-314.808h102.628l27.153,24.684v-71.4a46.712,46.712,0,0,0-46.712-46.712h-83.069a46.713,46.713,0,0,0-46.712,46.712h0A46.712,46.712,0,0,0-2299.045-314.808Z" transform="translate(2345.757 408.233)" fill="#31c573"/>
          </g>
          <g id="Group_117" data-name="Group 117" transform="translate(38.57 29.629)">
            <g id="Group_112" data-name="Group 112">
              <g id="Group_111" data-name="Group 111">
                <path id="Path_60" data-name="Path 60" d="M-2258.087-339.607h84.079a1.038,1.038,0,0,0,1.039-1.039,1.038,1.038,0,0,0-1.039-1.039h-84.079a1.038,1.038,0,0,0-1.039,1.039A1.038,1.038,0,0,0-2258.087-339.607Z" transform="translate(2259.126 341.684)" fill="#fff"/>
              </g>
            </g>
            <g id="Group_114" data-name="Group 114" transform="translate(0 16.662)">
              <g id="Group_113" data-name="Group 113">
                <path id="Path_61" data-name="Path 61" d="M-2258.087-302.182h96.421a1.038,1.038,0,0,0,1.039-1.039,1.038,1.038,0,0,0-1.039-1.039h-96.421a1.039,1.039,0,0,0-1.039,1.039A1.039,1.039,0,0,0-2258.087-302.182Z" transform="translate(2259.126 304.26)" fill="#fff"/>
              </g>
            </g>
            <g id="Group_116" data-name="Group 116" transform="translate(0 33.324)">
              <g id="Group_115" data-name="Group 115">
                <path id="Path_62" data-name="Path 62" d="M-2258.087-264.758h66.183a1.039,1.039,0,0,0,1.039-1.039,1.038,1.038,0,0,0-1.039-1.039h-66.183a1.038,1.038,0,0,0-1.039,1.039A1.038,1.038,0,0,0-2258.087-264.758Z" transform="translate(2259.126 266.835)" fill="#fff"/>
              </g>
            </g>
          </g>
        </g>
      </g>
    </g>
  </g>
</svg>
