<svg width="34" height="22" viewBox="0 0 34 22" fill="none" xmlns="http://www.w3.org/2000/svg">
<path d="M22.2245 21.9851C28.2833 21.9851 33.195 17.0734 33.195 11.0145C33.195 4.95563 28.2833 0.0439453 22.2245 0.0439453C16.1656 0.0439453 11.2539 4.95563 11.2539 11.0145C11.2539 17.0734 16.1656 21.9851 22.2245 21.9851Z" fill="#E8E8E9"/>
<path d="M10.9706 21.9851C17.0294 21.9851 21.9411 17.0734 21.9411 11.0145C21.9411 4.95563 17.0294 0.0439453 10.9706 0.0439453C4.91168 0.0439453 0 4.95563 0 11.0145C0 17.0734 4.91168 21.9851 10.9706 21.9851Z" fill="#D2D2D2"/>
<path d="M11.2539 11.0146C11.2539 15.017 13.3976 18.5176 16.599 20.4328C19.8004 18.5152 21.9441 15.017 21.9441 11.0146H11.2539Z" fill="#BBBBBC"/>
</svg>
